<svg xmlns="http://www.w3.org/2000/svg" xmlns:xlink="http://www.w3.org/1999/xlink" width="500" zoomAndPan="magnify" viewBox="0 0 375 374.999991" height="500" preserveAspectRatio="xMidYMid meet" version="1.0"><defs><clipPath id="666c3b204f"><path d="M 112.5 112.5 L 262.5 112.5 L 262.5 228 L 112.5 228 Z M 112.5 112.5 " clip-rule="nonzero"/></clipPath><clipPath id="d58b4e505f"><path d="M 147 232 L 178 232 L 178 262.5 L 147 262.5 Z M 147 232 " clip-rule="nonzero"/></clipPath><clipPath id="4fe17d52d5"><path d="M 207 232 L 238 232 L 238 262.5 L 207 262.5 Z M 207 232 " clip-rule="nonzero"/></clipPath></defs><g clip-path="url(#666c3b204f)"><path fill="#ffffff" d="M 152.5 207.5 L 229.261719 207.5 C 230.476562 207.503906 231.683594 207.40625 232.882812 207.207031 C 234.082031 207.003906 235.257812 206.707031 236.40625 206.308594 C 237.554688 205.90625 238.660156 205.414062 239.726562 204.828125 C 240.792969 204.242188 241.800781 203.570312 242.75 202.8125 C 243.703125 202.054688 244.585938 201.226562 245.394531 200.320312 C 246.207031 199.414062 246.933594 198.445312 247.582031 197.414062 C 248.230469 196.386719 248.785156 195.308594 249.25 194.183594 C 249.714844 193.0625 250.082031 191.90625 250.351562 190.71875 L 262.375 138.625 C 262.460938 138.257812 262.503906 137.886719 262.503906 137.511719 C 262.503906 137.132812 262.460938 136.761719 262.378906 136.394531 C 262.296875 136.027344 262.171875 135.675781 262.011719 135.335938 C 261.847656 134.996094 261.648438 134.679688 261.414062 134.386719 C 261.179688 134.09375 260.917969 133.828125 260.621094 133.59375 C 260.328125 133.359375 260.011719 133.160156 259.671875 132.996094 C 259.335938 132.832031 258.980469 132.707031 258.613281 132.625 C 258.246094 132.542969 257.875 132.5 257.5 132.5 L 141.164062 132.5 L 137.371094 116.355469 C 137.242188 115.804688 137.023438 115.292969 136.722656 114.816406 C 136.421875 114.34375 136.046875 113.929688 135.605469 113.578125 C 135.164062 113.230469 134.675781 112.960938 134.144531 112.777344 C 133.613281 112.59375 133.0625 112.5 132.5 112.5 L 117.5 112.5 C 117.171875 112.5 116.847656 112.53125 116.523438 112.597656 C 116.203125 112.660156 115.890625 112.753906 115.585938 112.878906 C 115.285156 113.007812 114.996094 113.160156 114.722656 113.34375 C 114.449219 113.523438 114.195312 113.730469 113.964844 113.964844 C 113.730469 114.195312 113.523438 114.449219 113.34375 114.722656 C 113.160156 114.996094 113.007812 115.285156 112.878906 115.585938 C 112.753906 115.890625 112.660156 116.203125 112.597656 116.523438 C 112.53125 116.847656 112.5 117.171875 112.5 117.5 C 112.5 117.828125 112.53125 118.152344 112.597656 118.476562 C 112.660156 118.796875 112.753906 119.109375 112.878906 119.414062 C 113.007812 119.714844 113.160156 120.003906 113.34375 120.277344 C 113.523438 120.550781 113.730469 120.804688 113.964844 121.035156 C 114.195312 121.269531 114.449219 121.476562 114.722656 121.65625 C 114.996094 121.839844 115.285156 121.992188 115.585938 122.121094 C 115.890625 122.246094 116.203125 122.339844 116.523438 122.402344 C 116.847656 122.46875 117.171875 122.5 117.5 122.5 L 128.539062 122.5 L 146.5 198.78125 C 145.71875 199.125 144.976562 199.53125 144.265625 200.003906 C 143.554688 200.476562 142.890625 201.003906 142.269531 201.589844 C 141.648438 202.175781 141.082031 202.808594 140.570312 203.488281 C 140.058594 204.171875 139.609375 204.890625 139.21875 205.648438 C 138.828125 206.40625 138.507812 207.191406 138.253906 208.003906 C 137.996094 208.820312 137.8125 209.648438 137.699219 210.492188 C 137.582031 211.335938 137.542969 212.1875 137.574219 213.039062 C 137.601562 213.890625 137.707031 214.734375 137.878906 215.566406 C 138.054688 216.402344 138.296875 217.214844 138.609375 218.007812 C 138.925781 218.800781 139.300781 219.5625 139.746094 220.289062 C 140.1875 221.019531 140.6875 221.703125 141.25 222.347656 C 141.808594 222.992188 142.417969 223.582031 143.078125 224.121094 C 143.738281 224.660156 144.441406 225.140625 145.183594 225.558594 C 145.925781 225.976562 146.695312 226.332031 147.5 226.621094 C 148.300781 226.90625 149.121094 227.125 149.960938 227.273438 C 150.800781 227.421875 151.648438 227.496094 152.5 227.5 L 247.5 227.5 C 247.828125 227.5 248.152344 227.46875 248.476562 227.402344 C 248.796875 227.339844 249.109375 227.246094 249.414062 227.121094 C 249.714844 226.992188 250.003906 226.839844 250.277344 226.65625 C 250.550781 226.476562 250.804688 226.269531 251.035156 226.035156 C 251.269531 225.804688 251.476562 225.550781 251.65625 225.277344 C 251.839844 225.003906 251.992188 224.714844 252.121094 224.414062 C 252.246094 224.109375 252.339844 223.796875 252.402344 223.476562 C 252.46875 223.152344 252.5 222.828125 252.5 222.5 C 252.5 222.171875 252.46875 221.847656 252.402344 221.523438 C 252.339844 221.203125 252.246094 220.890625 252.121094 220.585938 C 251.992188 220.285156 251.839844 219.996094 251.65625 219.722656 C 251.476562 219.449219 251.269531 219.195312 251.035156 218.964844 C 250.804688 218.730469 250.550781 218.523438 250.277344 218.34375 C 250.003906 218.160156 249.714844 218.007812 249.414062 217.878906 C 249.109375 217.753906 248.796875 217.660156 248.476562 217.597656 C 248.152344 217.53125 247.828125 217.5 247.5 217.5 L 152.5 217.5 C 152.171875 217.5 151.847656 217.46875 151.523438 217.402344 C 151.203125 217.339844 150.890625 217.246094 150.585938 217.121094 C 150.285156 216.992188 149.996094 216.839844 149.722656 216.65625 C 149.449219 216.476562 149.195312 216.269531 148.964844 216.035156 C 148.730469 215.804688 148.523438 215.550781 148.34375 215.277344 C 148.160156 215.003906 148.007812 214.714844 147.878906 214.414062 C 147.753906 214.109375 147.660156 213.796875 147.597656 213.476562 C 147.53125 213.152344 147.5 212.828125 147.5 212.5 C 147.5 212.171875 147.53125 211.847656 147.597656 211.523438 C 147.660156 211.203125 147.753906 210.890625 147.878906 210.585938 C 148.007812 210.285156 148.160156 209.996094 148.34375 209.722656 C 148.523438 209.449219 148.730469 209.195312 148.964844 208.964844 C 149.195312 208.730469 149.449219 208.523438 149.722656 208.34375 C 149.996094 208.160156 150.285156 208.007812 150.585938 207.878906 C 150.890625 207.753906 151.203125 207.660156 151.523438 207.597656 C 151.847656 207.53125 152.171875 207.5 152.5 207.5 Z M 251.214844 142.5 L 240.605469 188.46875 C 240.460938 189.109375 240.265625 189.730469 240.015625 190.335938 C 239.765625 190.941406 239.464844 191.519531 239.117188 192.074219 C 238.769531 192.628906 238.378906 193.148438 237.941406 193.636719 C 237.507812 194.125 237.03125 194.570312 236.519531 194.980469 C 236.007812 195.386719 235.464844 195.75 234.890625 196.0625 C 234.320312 196.378906 233.722656 196.644531 233.105469 196.859375 C 232.488281 197.074219 231.855469 197.234375 231.210938 197.34375 C 230.5625 197.449219 229.914062 197.503906 229.261719 197.5 L 156.460938 197.5 L 143.5 142.5 Z M 251.214844 142.5 " fill-opacity="1" fill-rule="nonzero"/></g><g clip-path="url(#d58b4e505f)"><path fill="#ffffff" d="M 162.5 232.5 C 161.515625 232.5 160.539062 232.597656 159.574219 232.789062 C 158.609375 232.980469 157.667969 233.265625 156.757812 233.640625 C 155.851562 234.019531 154.984375 234.480469 154.167969 235.027344 C 153.347656 235.574219 152.589844 236.195312 151.894531 236.894531 C 151.195312 237.589844 150.574219 238.347656 150.027344 239.167969 C 149.480469 239.984375 149.019531 240.851562 148.640625 241.757812 C 148.265625 242.667969 147.980469 243.609375 147.789062 244.574219 C 147.597656 245.539062 147.5 246.515625 147.5 247.5 C 147.5 248.484375 147.597656 249.460938 147.789062 250.425781 C 147.980469 251.390625 148.265625 252.332031 148.640625 253.238281 C 149.019531 254.148438 149.480469 255.015625 150.027344 255.832031 C 150.574219 256.652344 151.195312 257.410156 151.894531 258.105469 C 152.589844 258.804688 153.347656 259.425781 154.167969 259.972656 C 154.984375 260.519531 155.851562 260.980469 156.757812 261.359375 C 157.667969 261.734375 158.609375 262.019531 159.574219 262.210938 C 160.539062 262.402344 161.515625 262.5 162.5 262.5 C 163.484375 262.5 164.460938 262.402344 165.425781 262.210938 C 166.390625 262.019531 167.332031 261.734375 168.238281 261.359375 C 169.148438 260.980469 170.015625 260.519531 170.832031 259.972656 C 171.652344 259.425781 172.410156 258.804688 173.105469 258.105469 C 173.804688 257.410156 174.425781 256.652344 174.972656 255.832031 C 175.519531 255.015625 175.980469 254.148438 176.359375 253.238281 C 176.734375 252.332031 177.019531 251.390625 177.210938 250.425781 C 177.402344 249.460938 177.5 248.484375 177.5 247.5 C 177.5 246.515625 177.402344 245.539062 177.210938 244.574219 C 177.019531 243.609375 176.734375 242.667969 176.359375 241.757812 C 175.980469 240.851562 175.519531 239.984375 174.972656 239.167969 C 174.425781 238.347656 173.804688 237.589844 173.105469 236.894531 C 172.410156 236.195312 171.652344 235.574219 170.832031 235.027344 C 170.015625 234.480469 169.148438 234.019531 168.242188 233.640625 C 167.332031 233.265625 166.390625 232.980469 165.425781 232.789062 C 164.460938 232.597656 163.484375 232.5 162.5 232.5 Z M 162.5 252.5 C 162.171875 252.5 161.847656 252.46875 161.523438 252.402344 C 161.203125 252.339844 160.890625 252.246094 160.585938 252.121094 C 160.285156 251.992188 159.996094 251.839844 159.722656 251.65625 C 159.449219 251.476562 159.195312 251.269531 158.964844 251.035156 C 158.730469 250.804688 158.523438 250.550781 158.34375 250.277344 C 158.160156 250.003906 158.007812 249.714844 157.878906 249.414062 C 157.753906 249.109375 157.660156 248.796875 157.597656 248.476562 C 157.53125 248.152344 157.5 247.828125 157.5 247.5 C 157.5 247.171875 157.53125 246.847656 157.597656 246.523438 C 157.660156 246.203125 157.753906 245.890625 157.878906 245.585938 C 158.007812 245.285156 158.160156 244.996094 158.34375 244.722656 C 158.523438 244.449219 158.730469 244.195312 158.964844 243.964844 C 159.195312 243.730469 159.449219 243.523438 159.722656 243.34375 C 159.996094 243.160156 160.285156 243.007812 160.585938 242.878906 C 160.890625 242.753906 161.203125 242.660156 161.523438 242.597656 C 161.847656 242.53125 162.171875 242.5 162.5 242.5 C 162.828125 242.5 163.152344 242.53125 163.476562 242.597656 C 163.796875 242.660156 164.109375 242.753906 164.414062 242.878906 C 164.714844 243.007812 165.003906 243.160156 165.277344 243.34375 C 165.550781 243.523438 165.804688 243.730469 166.035156 243.964844 C 166.269531 244.195312 166.476562 244.449219 166.65625 244.722656 C 166.839844 244.996094 166.992188 245.285156 167.121094 245.585938 C 167.246094 245.890625 167.339844 246.203125 167.402344 246.523438 C 167.46875 246.847656 167.5 247.171875 167.5 247.5 C 167.5 247.828125 167.46875 248.152344 167.402344 248.476562 C 167.339844 248.796875 167.246094 249.109375 167.121094 249.414062 C 166.992188 249.714844 166.839844 250.003906 166.65625 250.277344 C 166.476562 250.550781 166.269531 250.804688 166.035156 251.035156 C 165.804688 251.269531 165.550781 251.476562 165.277344 251.65625 C 165.003906 251.839844 164.714844 251.992188 164.414062 252.121094 C 164.109375 252.246094 163.796875 252.339844 163.476562 252.402344 C 163.152344 252.46875 162.828125 252.5 162.5 252.5 Z M 162.5 252.5 " fill-opacity="1" fill-rule="nonzero"/></g><g clip-path="url(#4fe17d52d5)"><path fill="#ffffff" d="M 222.5 232.5 C 221.515625 232.5 220.539062 232.597656 219.574219 232.789062 C 218.609375 232.980469 217.667969 233.265625 216.757812 233.640625 C 215.851562 234.019531 214.984375 234.480469 214.167969 235.027344 C 213.347656 235.574219 212.589844 236.195312 211.894531 236.894531 C 211.195312 237.589844 210.574219 238.347656 210.027344 239.167969 C 209.480469 239.984375 209.019531 240.851562 208.640625 241.757812 C 208.265625 242.667969 207.980469 243.609375 207.789062 244.574219 C 207.597656 245.539062 207.5 246.515625 207.5 247.5 C 207.5 248.484375 207.597656 249.460938 207.789062 250.425781 C 207.980469 251.390625 208.265625 252.332031 208.640625 253.238281 C 209.019531 254.148438 209.480469 255.015625 210.027344 255.832031 C 210.574219 256.652344 211.195312 257.410156 211.894531 258.105469 C 212.589844 258.804688 213.347656 259.425781 214.167969 259.972656 C 214.984375 260.519531 215.851562 260.980469 216.757812 261.359375 C 217.667969 261.734375 218.609375 262.019531 219.574219 262.210938 C 220.539062 262.402344 221.515625 262.5 222.5 262.5 C 223.484375 262.5 224.460938 262.402344 225.425781 262.210938 C 226.390625 262.019531 227.332031 261.734375 228.238281 261.359375 C 229.148438 260.980469 230.015625 260.519531 230.832031 259.972656 C 231.652344 259.425781 232.410156 258.804688 233.105469 258.105469 C 233.804688 257.410156 234.425781 256.652344 234.972656 255.832031 C 235.519531 255.015625 235.980469 254.148438 236.359375 253.238281 C 236.734375 252.332031 237.019531 251.390625 237.210938 250.425781 C 237.402344 249.460938 237.5 248.484375 237.5 247.5 C 237.5 246.515625 237.402344 245.539062 237.210938 244.574219 C 237.019531 243.609375 236.734375 242.667969 236.359375 241.757812 C 235.980469 240.851562 235.519531 239.984375 234.972656 239.167969 C 234.425781 238.347656 233.804688 237.589844 233.105469 236.894531 C 232.410156 236.195312 231.652344 235.574219 230.832031 235.027344 C 230.015625 234.480469 229.148438 234.019531 228.238281 233.640625 C 227.332031 233.265625 226.390625 232.980469 225.425781 232.789062 C 224.460938 232.597656 223.484375 232.5 222.5 232.5 Z M 222.5 252.5 C 222.171875 252.5 221.847656 252.46875 221.523438 252.402344 C 221.203125 252.339844 220.890625 252.246094 220.585938 252.121094 C 220.285156 251.992188 219.996094 251.839844 219.722656 251.65625 C 219.449219 251.476562 219.195312 251.269531 218.964844 251.035156 C 218.730469 250.804688 218.523438 250.550781 218.34375 250.277344 C 218.160156 250.003906 218.007812 249.714844 217.878906 249.414062 C 217.753906 249.109375 217.660156 248.796875 217.597656 248.476562 C 217.53125 248.152344 217.5 247.828125 217.5 247.5 C 217.5 247.171875 217.53125 246.847656 217.597656 246.523438 C 217.660156 246.203125 217.753906 245.890625 217.878906 245.585938 C 218.007812 245.285156 218.160156 244.996094 218.34375 244.722656 C 218.523438 244.449219 218.730469 244.195312 218.964844 243.964844 C 219.195312 243.730469 219.449219 243.523438 219.722656 243.34375 C 219.996094 243.160156 220.285156 243.007812 220.585938 242.878906 C 220.890625 242.753906 221.203125 242.660156 221.523438 242.597656 C 221.847656 242.53125 222.171875 242.5 222.5 242.5 C 222.828125 242.5 223.152344 242.53125 223.476562 242.597656 C 223.796875 242.660156 224.109375 242.753906 224.414062 242.878906 C 224.714844 243.007812 225.003906 243.160156 225.277344 243.34375 C 225.550781 243.523438 225.804688 243.730469 226.035156 243.964844 C 226.269531 244.195312 226.476562 244.449219 226.65625 244.722656 C 226.839844 244.996094 226.992188 245.285156 227.121094 245.585938 C 227.246094 245.890625 227.339844 246.203125 227.402344 246.523438 C 227.46875 246.847656 227.5 247.171875 227.5 247.5 C 227.5 247.828125 227.46875 248.152344 227.402344 248.476562 C 227.339844 248.796875 227.246094 249.109375 227.121094 249.414062 C 226.992188 249.714844 226.839844 250.003906 226.65625 250.277344 C 226.476562 250.550781 226.269531 250.804688 226.035156 251.035156 C 225.804688 251.269531 225.550781 251.476562 225.277344 251.65625 C 225.003906 251.839844 224.714844 251.992188 224.414062 252.121094 C 224.109375 252.246094 223.796875 252.339844 223.476562 252.402344 C 223.152344 252.46875 222.828125 252.5 222.5 252.5 Z M 222.5 252.5 " fill-opacity="1" fill-rule="nonzero"/></g></svg>